{
    "asset" : {
        "generator" : "Khronos glTF Blender I/O v3.2.43",
        "version" : "2.0"
    },
    "scene" : 0,
    "scenes" : [
        {
            "name" : "Scene",
            "nodes" : [
                0,
                1
            ]
        }
    ],
    "nodes" : [
        {
            "mesh" : 0,
            "name" : "Base"
        },
        {
            "mesh" : 1,
            "name" : "Top"
        }
    ],
    "materials" : [
        {
            "doubleSided" : true,
            "name" : "Pyramid",
            "pbrMetallicRoughness" : {
                "baseColorTexture" : {
                    "index" : 0
                },
                "metallicFactor" : 0
            }
        }
    ],
    "meshes" : [
        {
            "name" : "Cube.001",
            "primitives" : [
                {
                    "attributes" : {
                        "POSITION" : 0,
                        "NORMAL" : 1,
                        "TEXCOORD_0" : 2
                    },
                    "indices" : 3,
                    "material" : 0
                }
            ]
        },
        {
            "name" : "Cube.002",
            "primitives" : [
                {
                    "attributes" : {
                        "POSITION" : 4,
                        "NORMAL" : 5,
                        "TEXCOORD_0" : 6,
                        "TEXCOORD_1" : 7
                    },
                    "indices" : 8,
                    "material" : 0
                }
            ]
        }
    ],
    "textures" : [
        {
            "sampler" : 0,
            "source" : 0
        }
    ],
    "images" : [
        {
            "mimeType" : "image/png",
            "name" : "Mask",
            "uri" : "Mask.png"
        }
    ],
    "accessors" : [
        {
            "bufferView" : 0,
            "componentType" : 5126,
            "count" : 1806,
            "max" : [
                1,
                0.09230193495750427,
                1
            ],
            "min" : [
                -1.0001897811889648,
                -1.244122862815857,
                -1
            ],
            "type" : "VEC3"
        },
        {
            "bufferView" : 1,
            "componentType" : 5126,
            "count" : 1806,
            "type" : "VEC3"
        },
        {
            "bufferView" : 2,
            "componentType" : 5126,
            "count" : 1806,
            "type" : "VEC2"
        },
        {
            "bufferView" : 3,
            "componentType" : 5123,
            "count" : 2400,
            "type" : "SCALAR"
        },
        {
            "bufferView" : 4,
            "componentType" : 5126,
            "count" : 498,
            "max" : [
                0.3990074694156647,
                0.8664560317993164,
                0.38138893246650696
            ],
            "min" : [
                -0.3860338032245636,
                0.08141472935676575,
                -0.4036523997783661
            ],
            "type" : "VEC3"
        },
        {
            "bufferView" : 5,
            "componentType" : 5126,
            "count" : 498,
            "type" : "VEC3"
        },
        {
            "bufferView" : 6,
            "componentType" : 5126,
            "count" : 498,
            "type" : "VEC2"
        },
        {
            "bufferView" : 7,
            "componentType" : 5126,
            "count" : 498,
            "type" : "VEC2"
        },
        {
            "bufferView" : 8,
            "componentType" : 5123,
            "count" : 648,
            "type" : "SCALAR"
        }
    ],
    "bufferViews" : [
        {
            "buffer" : 0,
            "byteLength" : 21672,
            "byteOffset" : 0
        },
        {
            "buffer" : 0,
            "byteLength" : 21672,
            "byteOffset" : 21672
        },
        {
            "buffer" : 0,
            "byteLength" : 14448,
            "byteOffset" : 43344
        },
        {
            "buffer" : 0,
            "byteLength" : 4800,
            "byteOffset" : 57792
        },
        {
            "buffer" : 0,
            "byteLength" : 5976,
            "byteOffset" : 62592
        },
        {
            "buffer" : 0,
            "byteLength" : 5976,
            "byteOffset" : 68568
        },
        {
            "buffer" : 0,
            "byteLength" : 3984,
            "byteOffset" : 74544
        },
        {
            "buffer" : 0,
            "byteLength" : 3984,
            "byteOffset" : 78528
        },
        {
            "buffer" : 0,
            "byteLength" : 1296,
            "byteOffset" : 82512
        }
    ],
    "samplers" : [
        {
            "magFilter" : 9729,
            "minFilter" : 9987
        }
    ],
    "buffers" : [
        {
            "byteLength" : 83808,
            "uri" : "Pyramid.bin"
        }
    ]
}
